<svg xmlns="http://www.w3.org/2000/svg" viewBox="0 0 32 32" fill="none">
  <!-- Ghost body simplified for favicon -->
  <path d="M16 2C10 2 5 7 5 13v13c0 0 0 2 2 2s2-2 2-2 1 2 2 2 2-2 2-2 1 2 2 2 2-2 2-2 1 2 2 2 2-2 2-2 1 2 2 2 2-2 2-2V13C27 7 22 2 16 2z" fill="#8B5CF6"/>
  <!-- Eyes -->
  <circle cx="13" cy="13" r="2.2" fill="white"/>
  <circle cx="19" cy="13" r="2.2" fill="white"/>
  <circle cx="13.5" cy="13.3" r="1.1" fill="#1E1B4B"/>
  <circle cx="19.5" cy="13.3" r="1.1" fill="#1E1B4B"/>
</svg>
