<svg xmlns="http://www.w3.org/2000/svg" viewBox="0 0 400 100" fill="none">
  <!-- Ghost icon (compact) -->
  <path d="M50 10C34 10 20 24 20 40v40c0 0 0 5 4 5s6-5 6-5 2 5 6 5 6-5 6-5 2 5 6 5 6-5 6-5 2 5 6 5 4-5 4-5V40c0-16-14-30-30-30z" fill="#A78BFA"/>
  <circle cx="42" cy="40" r="5" fill="white"/>
  <circle cx="58" cy="40" r="5" fill="white"/>
  <circle cx="43.5" cy="41" r="2.5" fill="#1E1B4B"/>
  <circle cx="59.5" cy="41" r="2.5" fill="#1E1B4B"/>
  <!-- Text (white for dark backgrounds) -->
  <text x="90" y="62" font-family="-apple-system, BlinkMacSystemFont, 'Segoe UI', sans-serif" font-size="42" font-weight="700" fill="#F5F3FF" letter-spacing="-1">Ghostwork</text>
</svg>
